<svg width="18" height="16" viewBox="0 0 18 16" fill="none" xmlns="http://www.w3.org/2000/svg">
<path d="M6.26537 4.97391L8.6553 0H9.3447L11.7346 4.97391H6.26537ZM8.38423 16L0.181704 6.20046H8.38423V16ZM9.61577 16V6.20046H17.8183L9.61577 16ZM13.1212 4.97391L10.7357 0H14.4267C14.7622 0 15.0686 0.0867384 15.3461 0.260215C15.6236 0.433692 15.8414 0.665306 15.9996 0.955057L18 4.97391H13.1212ZM0 4.97391L2.00407 0.955057C2.1598 0.665306 2.3764 0.433692 2.65388 0.260215C2.93137 0.0867384 3.23783 0 3.57325 0H7.26431L4.88242 4.97391H0Z" fill="#007AFF"/>
</svg>
