<svg width="64" height="47" viewBox="0 0 64 47" fill="none" xmlns="http://www.w3.org/2000/svg">
<path d="M13.84 46.56C9.89333 46.56 6.69333 45.2267 4.24 42.56C1.78667 39.8933 0.560001 36.2933 0.560001 31.76C0.560001 28.1867 1.41333 24.6133 3.12 21.04C4.82667 17.4667 7.38667 13.9733 10.8 10.56C14.2133 7.14666 18.4267 3.94666 23.44 0.959991L29.68 9.2C25.68 11.0667 22.1333 13.36 19.04 16.08C16 18.8 13.92 21.4667 12.8 24.08C15.2 23.92 17.3867 24.2933 19.36 25.2C21.3867 26.0533 22.9867 27.3067 24.16 28.96C25.3333 30.6133 25.92 32.5867 25.92 34.88C25.92 38.3467 24.7733 41.1733 22.48 43.36C20.24 45.4933 17.36 46.56 13.84 46.56ZM47.68 46.56C43.7333 46.56 40.5333 45.2267 38.08 42.56C35.6267 39.8933 34.4 36.2933 34.4 31.76C34.4 28.1867 35.2533 24.6133 36.96 21.04C38.6667 17.4667 41.2267 13.9733 44.64 10.56C48.0533 7.14666 52.2667 3.94666 57.28 0.959991L63.52 9.2C59.52 11.0667 55.9733 13.36 52.88 16.08C49.84 18.8 47.76 21.4667 46.64 24.08C49.04 23.92 51.2267 24.2933 53.2 25.2C55.2267 26.0533 56.8267 27.3067 58 28.96C59.1733 30.6133 59.76 32.5867 59.76 34.88C59.76 38.3467 58.6133 41.1733 56.32 43.36C54.08 45.4933 51.2 46.56 47.68 46.56Z" fill="#5CD034"/>
</svg>
