<svg width="32" height="24" viewBox="0 0 32 24" fill="none" xmlns="http://www.w3.org/2000/svg">
<path d="M6.92 23.28C4.94667 23.28 3.34667 22.6133 2.12 21.28C0.893334 19.9467 0.28 18.1467 0.28 15.88C0.28 14.0933 0.706667 12.3067 1.56 10.52C2.41333 8.73333 3.69333 6.98666 5.4 5.28C7.10667 3.57333 9.21333 1.97333 11.72 0.479996L14.84 4.6C12.84 5.53333 11.0667 6.68 9.52 8.04C8 9.4 6.96 10.7333 6.4 12.04C7.6 11.96 8.69333 12.1467 9.68 12.6C10.6933 13.0267 11.4933 13.6533 12.08 14.48C12.6667 15.3067 12.96 16.2933 12.96 17.44C12.96 19.1733 12.3867 20.5867 11.24 21.68C10.12 22.7467 8.68 23.28 6.92 23.28ZM23.84 23.28C21.8667 23.28 20.2667 22.6133 19.04 21.28C17.8133 19.9467 17.2 18.1467 17.2 15.88C17.2 14.0933 17.6267 12.3067 18.48 10.52C19.3333 8.73333 20.6133 6.98666 22.32 5.28C24.0267 3.57333 26.1333 1.97333 28.64 0.479996L31.76 4.6C29.76 5.53333 27.9867 6.68 26.44 8.04C24.92 9.4 23.88 10.7333 23.32 12.04C24.52 11.96 25.6133 12.1467 26.6 12.6C27.6133 13.0267 28.4133 13.6533 29 14.48C29.5867 15.3067 29.88 16.2933 29.88 17.44C29.88 19.1733 29.3067 20.5867 28.16 21.68C27.04 22.7467 25.6 23.28 23.84 23.28Z" fill="#3734AB"/>
</svg>
