<svg width="30" height="26" viewBox="0 0 30 26" fill="none" xmlns="http://www.w3.org/2000/svg">
<path d="M10.4423 8.08261L14.4255 0H15.5745L19.5577 8.08261H10.4423ZM13.9737 26L0.30284 10.0757H13.9737V26ZM16.0263 26V10.0757H29.6971L16.0263 26ZM21.8687 8.08261L17.8928 0H24.0446C24.6036 0 25.1144 0.14095 25.5769 0.42285C26.0393 0.704749 26.4024 1.08112 26.666 1.55197L30 8.08261H21.8687ZM0 8.08261L3.34012 1.55197C3.59967 1.08112 3.96067 0.704749 4.42313 0.42285C4.88562 0.14095 5.39638 0 5.95542 0H12.1072L8.13737 8.08261H0Z" fill="#AF52DE"/>
</svg>
