<svg width="129" height="25" viewBox="0 0 129 25" fill="none" xmlns="http://www.w3.org/2000/svg">
<path d="M79.7246 9.26367H79.0303C78.9658 9.06445 78.8516 8.80078 78.6875 8.47266C78.5234 8.13867 78.3477 7.83691 78.1602 7.56738C77.9434 7.25098 77.7295 6.99023 77.5186 6.78516C77.3076 6.58008 77.0879 6.45703 76.8594 6.41602C76.6484 6.38086 76.4141 6.35742 76.1562 6.3457C75.8984 6.32812 75.626 6.31934 75.3389 6.31934H73.5547V16.1631C73.5547 16.3799 73.6016 16.5645 73.6953 16.7168C73.7891 16.8633 73.9355 16.9775 74.1348 17.0596C74.2578 17.1064 74.4512 17.1533 74.7148 17.2002C74.9785 17.2412 75.251 17.2793 75.5322 17.3145V18H68.6064V17.3145C68.7764 17.2969 69.002 17.2734 69.2832 17.2441C69.5645 17.209 69.7607 17.168 69.8721 17.1211C70.083 17.0391 70.2295 16.9248 70.3115 16.7783C70.3936 16.6318 70.4346 16.4443 70.4346 16.2158V7.41797C70.4346 7.21875 70.3965 7.0459 70.3203 6.89941C70.25 6.74707 70.1006 6.62109 69.8721 6.52148C69.708 6.45117 69.4912 6.38672 69.2217 6.32812C68.9521 6.26953 68.7471 6.23145 68.6064 6.21387V5.52832H79.7246V9.26367ZM89.8057 15.8994C89.6006 16.2334 89.3516 16.5498 89.0586 16.8486C88.7715 17.1416 88.4434 17.3936 88.0742 17.6045C87.6816 17.8271 87.2832 17.9941 86.8789 18.1055C86.4805 18.2227 86.0205 18.2812 85.499 18.2812C84.6318 18.2812 83.8818 18.1582 83.249 17.9121C82.6221 17.666 82.1035 17.335 81.6934 16.9189C81.2832 16.5029 80.9756 16.0137 80.7705 15.4512C80.5713 14.8828 80.4717 14.2676 80.4717 13.6055C80.4717 13.0078 80.5801 12.4365 80.7969 11.8916C81.0195 11.3408 81.333 10.8516 81.7373 10.4238C82.1357 10.0078 82.6367 9.6709 83.2402 9.41309C83.8496 9.15527 84.5293 9.02637 85.2793 9.02637C86.0996 9.02637 86.7734 9.12598 87.3008 9.3252C87.8281 9.52441 88.2646 9.7998 88.6104 10.1514C88.9443 10.4854 89.1875 10.8809 89.3398 11.3379C89.4922 11.7891 89.5684 12.2637 89.5684 12.7617V13.333H83.627C83.627 14.5342 83.8584 15.4482 84.3213 16.0752C84.7842 16.7021 85.5195 17.0156 86.5273 17.0156C87.0781 17.0156 87.5732 16.8662 88.0127 16.5674C88.4521 16.2627 88.8271 15.8789 89.1377 15.416L89.8057 15.8994ZM86.4482 12.5596C86.4482 12.208 86.4307 11.8477 86.3955 11.4785C86.3604 11.1094 86.2988 10.8076 86.2109 10.5732C86.1113 10.2979 85.9736 10.0898 85.7979 9.94922C85.6279 9.80859 85.4111 9.73828 85.1475 9.73828C84.6963 9.73828 84.3359 9.9668 84.0664 10.4238C83.7969 10.8809 83.6504 11.6045 83.627 12.5947L86.4482 12.5596ZM102.383 18H97.0391V17.3584C97.1387 17.3408 97.2617 17.3203 97.4082 17.2969C97.5547 17.2676 97.6865 17.2178 97.8037 17.1475C97.9443 17.0654 98.041 16.9658 98.0938 16.8486C98.1523 16.7256 98.1816 16.5498 98.1816 16.3213V13.7988H94.8945V16.3213C94.8945 16.5264 94.9238 16.6963 94.9824 16.8311C95.041 16.9658 95.1377 17.0713 95.2725 17.1475C95.3662 17.2002 95.4805 17.2441 95.6152 17.2793C95.7559 17.3145 95.8965 17.3408 96.0371 17.3584V18H90.6934V17.3584C90.8398 17.3467 90.9863 17.332 91.1328 17.3145C91.2852 17.291 91.4141 17.2617 91.5195 17.2266C91.707 17.1621 91.8359 17.0625 91.9062 16.9277C91.9766 16.793 92.0117 16.6172 92.0117 16.4004V10.8809C92.0117 10.6758 91.9736 10.5029 91.8975 10.3623C91.8271 10.2158 91.7012 10.1133 91.5195 10.0547C91.3672 10.0078 91.2266 9.97852 91.0977 9.9668C90.9688 9.94922 90.834 9.93457 90.6934 9.92285V9.28125H96.0371V9.92285C95.8965 9.94043 95.7646 9.96387 95.6416 9.99316C95.5244 10.0166 95.4014 10.0635 95.2725 10.1338C95.1318 10.21 95.0322 10.3184 94.9736 10.459C94.9209 10.5996 94.8945 10.7666 94.8945 10.96V12.9814H98.1816V10.96C98.1816 10.7666 98.1553 10.6025 98.1025 10.4678C98.0498 10.3271 97.9502 10.2158 97.8037 10.1338C97.6924 10.0693 97.5635 10.0225 97.417 9.99316C97.2764 9.96387 97.1504 9.94043 97.0391 9.92285V9.28125H102.383V9.92285C102.207 9.93457 102.061 9.94922 101.943 9.9668C101.826 9.98438 101.697 10.0137 101.557 10.0547C101.387 10.1074 101.261 10.2041 101.179 10.3447C101.103 10.4795 101.064 10.6582 101.064 10.8809V16.4004C101.064 16.6113 101.1 16.79 101.17 16.9365C101.246 17.0771 101.375 17.1738 101.557 17.2266C101.697 17.2676 101.82 17.2969 101.926 17.3145C102.037 17.332 102.189 17.3467 102.383 17.3584V18ZM115.294 18H109.985V17.3584C110.085 17.3408 110.208 17.3203 110.354 17.2969C110.501 17.2676 110.633 17.2178 110.75 17.1475C110.891 17.0654 110.987 16.9658 111.04 16.8486C111.099 16.7256 111.128 16.5498 111.128 16.3213V12.1816L107.612 16.3389V16.3652C107.612 16.5762 107.639 16.7461 107.691 16.875C107.75 16.998 107.85 17.0977 107.99 17.1738C108.084 17.2266 108.201 17.2676 108.342 17.2969C108.488 17.3203 108.635 17.3408 108.781 17.3584V18H103.473V17.3584C103.619 17.3467 103.766 17.332 103.912 17.3145C104.064 17.291 104.193 17.2617 104.299 17.2266C104.486 17.1621 104.615 17.0625 104.686 16.9277C104.756 16.793 104.791 16.6172 104.791 16.4004V10.8809C104.791 10.6758 104.753 10.5029 104.677 10.3623C104.606 10.2158 104.48 10.1133 104.299 10.0547C104.146 10.0078 104.006 9.97852 103.877 9.9668C103.748 9.94922 103.613 9.93457 103.473 9.92285V9.28125H108.781V9.92285C108.641 9.94043 108.509 9.96387 108.386 9.99316C108.269 10.0166 108.146 10.0635 108.017 10.1338C107.876 10.21 107.776 10.3184 107.718 10.459C107.665 10.5996 107.639 10.7666 107.639 10.96V15.0996L111.154 10.9424V10.916C111.154 10.7051 111.125 10.5381 111.066 10.415C111.014 10.2861 110.917 10.1836 110.776 10.1074C110.665 10.043 110.53 10.002 110.372 9.98438C110.22 9.96094 110.091 9.94043 109.985 9.92285V9.28125H115.294V9.92285C115.118 9.93457 114.972 9.94922 114.854 9.9668C114.737 9.98438 114.608 10.0137 114.468 10.0547C114.298 10.1074 114.172 10.2041 114.09 10.3447C114.014 10.4795 113.976 10.6582 113.976 10.8809V16.4004C113.976 16.6113 114.011 16.79 114.081 16.9365C114.157 17.0771 114.286 17.1738 114.468 17.2266C114.608 17.2676 114.731 17.2969 114.837 17.3145C114.948 17.332 115.101 17.3467 115.294 17.3584V18ZM128.214 18H122.905V17.3584C123.005 17.3408 123.128 17.3203 123.274 17.2969C123.421 17.2676 123.553 17.2178 123.67 17.1475C123.811 17.0654 123.907 16.9658 123.96 16.8486C124.019 16.7256 124.048 16.5498 124.048 16.3213V12.1816L120.532 16.3389V16.3652C120.532 16.5762 120.559 16.7461 120.611 16.875C120.67 16.998 120.77 17.0977 120.91 17.1738C121.004 17.2266 121.121 17.2676 121.262 17.2969C121.408 17.3203 121.555 17.3408 121.701 17.3584V18H116.393V17.3584C116.539 17.3467 116.686 17.332 116.832 17.3145C116.984 17.291 117.113 17.2617 117.219 17.2266C117.406 17.1621 117.535 17.0625 117.605 16.9277C117.676 16.793 117.711 16.6172 117.711 16.4004V10.8809C117.711 10.6758 117.673 10.5029 117.597 10.3623C117.526 10.2158 117.4 10.1133 117.219 10.0547C117.066 10.0078 116.926 9.97852 116.797 9.9668C116.668 9.94922 116.533 9.93457 116.393 9.92285V9.28125H121.701V9.92285C121.561 9.94043 121.429 9.96387 121.306 9.99316C121.188 10.0166 121.065 10.0635 120.937 10.1338C120.796 10.21 120.696 10.3184 120.638 10.459C120.585 10.5996 120.559 10.7666 120.559 10.96V15.0996L124.074 10.9424V10.916C124.074 10.7051 124.045 10.5381 123.986 10.415C123.934 10.2861 123.837 10.1836 123.696 10.1074C123.585 10.043 123.45 10.002 123.292 9.98438C123.14 9.96094 123.011 9.94043 122.905 9.92285V9.28125H128.214V9.92285C128.038 9.93457 127.892 9.94922 127.774 9.9668C127.657 9.98438 127.528 10.0137 127.388 10.0547C127.218 10.1074 127.092 10.2041 127.01 10.3447C126.934 10.4795 126.896 10.6582 126.896 10.8809V16.4004C126.896 16.6113 126.931 16.79 127.001 16.9365C127.077 17.0771 127.206 17.1738 127.388 17.2266C127.528 17.2676 127.651 17.2969 127.757 17.3145C127.868 17.332 128.021 17.3467 128.214 17.3584V18ZM125.814 5.57227C125.814 5.7832 125.756 6.02051 125.639 6.28418C125.527 6.54785 125.334 6.79395 125.059 7.02246C124.754 7.27441 124.373 7.47363 123.916 7.62012C123.465 7.7666 122.926 7.83984 122.299 7.83984C121.637 7.83984 121.08 7.76367 120.629 7.61133C120.184 7.45312 119.826 7.25684 119.557 7.02246C119.299 6.79395 119.108 6.54785 118.985 6.28418C118.868 6.01465 118.81 5.77734 118.81 5.57227C118.81 5.25586 118.909 4.98926 119.108 4.77246C119.308 4.55566 119.557 4.44727 119.855 4.44727C120.178 4.44727 120.462 4.53809 120.708 4.71973C120.96 4.89551 121.086 5.1416 121.086 5.45801C121.086 5.61035 121.033 5.82422 120.928 6.09961C120.822 6.36914 120.743 6.55957 120.69 6.6709C120.937 6.87012 121.206 7.01074 121.499 7.09277C121.798 7.1748 122.064 7.21582 122.299 7.21582C122.527 7.21582 122.8 7.17188 123.116 7.08398C123.433 6.99609 123.705 6.8584 123.934 6.6709C123.863 6.5127 123.781 6.3252 123.688 6.1084C123.594 5.88574 123.547 5.66895 123.547 5.45801C123.547 5.18848 123.658 4.9541 123.881 4.75488C124.104 4.5498 124.396 4.44727 124.76 4.44727C125.064 4.44727 125.316 4.55566 125.516 4.77246C125.715 4.98926 125.814 5.25586 125.814 5.57227Z" fill="#24A322"/>
<path d="M22 12.5004C22 12.9401 21.7474 13.3362 21.3441 13.6099C20.9896 13.8523 20.5168 14 20 14C19.5805 14 19.19 13.9027 18.8679 13.7359C18.3441 13.4666 18 13.013 18 12.5004C18 11.6716 18.8957 11 20 11C20.7045 11 21.3233 11.2728 21.679 11.6855C21.7775 11.7984 21.8552 11.9218 21.9096 12.053C21.9687 12.1946 22 12.3449 22 12.5004Z" fill="#24A322"/>
<path d="M57 11.1143C57 11.412 56.9883 11.7079 56.964 12C56.4976 6.2752 51.5442 1.77051 45.4995 1.77051C39.7813 1.77051 35.0369 5.80463 34.1506 11.0899C34.1283 11.2195 34.1079 11.3491 34.0914 11.4806C34.069 11.6525 34.0515 11.8253 34.0369 12C34.0165 11.7661 34.0068 11.5313 34.0029 11.2937C34.001 11.2336 34 11.1744 34 11.1143C34 11.0729 34 11.0316 34.0029 10.9912C34.069 4.90952 39.1914 0 45.4995 0C51.8076 0 57 4.97621 57 11.1143Z" fill="#24A322"/>
<path d="M23 12.9585C23 14.4502 22.7405 15.8788 22.2663 17.1976C21.3713 19.6915 19.7086 21.7907 17.5794 23.1817C15.8157 24.3335 13.7322 25 11.5 25C5.14944 25 0 19.6091 0 12.9585C0 12.636 0.0126331 12.3165 0.0369275 12C0.502408 18.2019 5.4575 23.082 11.5 23.082C13.6496 23.082 15.6611 22.4643 17.3831 21.3888C19.3665 20.1504 20.9641 18.3036 21.9398 16.0935C22.4995 14.8318 22.8542 13.452 22.9631 12C22.9883 12.3165 23 12.636 23 12.9585Z" fill="#24A322"/>
<path d="M57 12.9585C57 19.6091 51.8513 25 45.4995 25C43.0603 25 40.7988 24.2043 38.9388 22.8479C36.8105 21.2982 35.206 19.0139 34.4616 16.3449C34.1613 15.2714 34 14.1348 34 12.9585C34 12.636 34.0117 12.3165 34.0369 12C34.1176 13.0776 34.3343 14.1155 34.6686 15.0943C35.5015 17.5364 37.0661 19.6132 39.0865 21.0367C40.9184 22.329 43.1244 23.082 45.4995 23.082C51.5442 23.082 56.4976 18.2019 56.964 12C56.9883 12.3165 57 12.636 57 12.9585Z" fill="#24A322"/>
<path d="M28.0199 9.10332C25.9338 9.10332 23.9816 9.67345 22.3114 10.6662C22.318 10.8147 22.3209 10.964 22.3209 11.1143C22.3209 11.412 22.3096 11.7079 22.285 12C22.253 11.5867 22.1983 11.18 22.1209 10.7818C22.1172 10.7592 22.1124 10.7376 22.1077 10.716C21.0958 5.61584 16.5794 1.77051 11.1604 1.77051C5.29635 1.77051 0.487574 6.2752 0.0358371 12C0.0122601 11.7079 0 11.412 0 11.1143C0 4.97621 4.99739 0 11.1604 0C17.3235 0 21.9389 4.6052 22.2982 10.4192C23.5374 8.59048 25.6386 7.38729 28.0199 7.38729C30.5776 7.38729 32.8098 8.77364 34 10.8325C32.2713 9.73732 30.2201 9.10332 28.0199 9.10332Z" fill="#24A322"/>
<path d="M39 12.5004C39 13.1868 38.3849 13.7654 37.5462 13.9427C37.3724 13.98 37.1894 14 36.9994 14C35.8955 14 35 13.3284 35 12.5004C35 12.3319 35.0371 12.1694 35.1066 12.0182C35.373 11.4257 36.1202 11 36.9994 11C38.1045 11 39 11.6716 39 12.5004Z" fill="#24A322"/>
</svg>
