<svg width="54" height="24" viewBox="0 0 54 24" fill="none" xmlns="http://www.w3.org/2000/svg">
<path d="M20.512 11.6572C20.512 12.0673 20.2764 12.4368 19.9003 12.692C19.5696 12.9181 19.1286 13.0559 18.6466 13.0559C18.2554 13.0559 17.8912 12.9651 17.5907 12.8095C17.1022 12.5583 16.7812 12.1353 16.7812 11.6572C16.7812 10.8842 17.6167 10.2578 18.6466 10.2578C19.3037 10.2578 19.8808 10.5123 20.2126 10.8972C20.3045 11.0025 20.3769 11.1176 20.4277 11.2399C20.4828 11.372 20.512 11.5122 20.512 11.6572Z" fill="#24A322"/>
<path d="M53.1628 10.3662C53.1628 10.6439 53.1519 10.9198 53.1292 11.1923C52.6942 5.85281 48.0742 1.65133 42.4364 1.65133C37.1031 1.65133 32.6781 5.41391 31.8514 10.3434C31.8306 10.4643 31.8115 10.5852 31.7961 10.7078C31.7753 10.8681 31.759 11.0293 31.7454 11.1923C31.7263 10.9741 31.7173 10.7551 31.7137 10.5335C31.7118 10.4774 31.7109 10.4222 31.7109 10.3662C31.7109 10.3276 31.7109 10.2891 31.7137 10.2514C31.7753 4.57905 36.5529 0 42.4364 0C48.3199 0 53.1628 4.64125 53.1628 10.3662Z" fill="#24A322"/>
<path d="M21.4518 12.0854C21.4518 13.4767 21.2098 14.8091 20.7675 16.0391C19.9328 18.3652 18.382 20.3231 16.3961 21.6204C14.7511 22.6947 12.8078 23.3164 10.7259 23.3164C4.80282 23.3164 0 18.2883 0 12.0854C0 11.7846 0.0117827 11.4866 0.0344418 11.1914C0.46859 16.9758 5.09014 21.5274 10.7259 21.5274C12.7308 21.5274 14.607 20.9513 16.213 19.9482C18.0629 18.7932 19.553 17.0707 20.463 15.0094C20.9851 13.8326 21.3159 12.5457 21.4174 11.1914C21.441 11.4866 21.4518 11.7846 21.4518 12.0854Z" fill="#24A322"/>
<path d="M53.1628 12.0854C53.1628 18.2883 48.3606 23.3164 42.4364 23.3164C40.1613 23.3164 38.0521 22.5742 36.3173 21.3091C34.3323 19.8637 32.8358 17.7331 32.1415 15.2438C31.8614 14.2426 31.7109 13.1825 31.7109 12.0854C31.7109 11.7846 31.7218 11.4866 31.7454 11.1914C31.8206 12.1964 32.0227 13.1645 32.3345 14.0774C33.1113 16.3551 34.5706 18.2921 36.4551 19.6198C38.1636 20.8251 40.2212 21.5274 42.4364 21.5274C48.0742 21.5274 52.6942 16.9758 53.1292 11.1914C53.1519 11.4866 53.1628 11.7846 53.1628 12.0854Z" fill="#24A322"/>
<path d="M26.1338 8.49056C24.1882 8.49056 22.3674 9.02231 20.8096 9.94828C20.8158 10.0867 20.8184 10.226 20.8184 10.3662C20.8184 10.6439 20.8079 10.9198 20.785 11.1923C20.7551 10.8068 20.7041 10.4275 20.6319 10.056C20.6284 10.035 20.624 10.0149 20.6196 9.99471C19.6758 5.23783 15.4634 1.65133 10.4092 1.65133C4.93984 1.65133 0.454754 5.85281 0.0334249 11.1923C0.0114348 10.9198 0 10.6439 0 10.3662C0 4.64125 4.66101 0 10.4092 0C16.1574 0 20.4622 4.29521 20.7973 9.71789C21.9531 8.01224 23.9128 6.89004 26.1338 6.89004C28.5193 6.89004 30.6013 8.18307 31.7114 10.1033C30.0991 9.08188 28.186 8.49056 26.1338 8.49056Z" fill="#24A322"/>
<path d="M36.3714 11.6572C36.3714 12.2974 35.7977 12.8371 35.0154 13.0024C34.8534 13.0372 34.6827 13.0559 34.5055 13.0559C33.4758 13.0559 32.6406 12.4295 32.6406 11.6572C32.6406 11.5 32.6752 11.3485 32.74 11.2075C32.9885 10.6549 33.6854 10.2578 34.5055 10.2578C35.5362 10.2578 36.3714 10.8842 36.3714 11.6572Z" fill="#24A322"/>
</svg>
