<svg width="16" height="16" viewBox="0 0 16 16" fill="none" xmlns="http://www.w3.org/2000/svg">
<path d="M6.81275 13.5695C4.89554 13.5695 3.28078 12.9117 1.96847 11.5961C0.656156 10.2805 0 8.67673 0 6.78473C0 4.89273 0.656602 3.28895 1.96981 1.97337C3.28299 0.657789 4.88389 0 6.77249 0C8.66107 0 10.262 0.657789 11.5752 1.97337C12.8884 3.28895 13.545 4.89356 13.545 6.78722C13.545 7.51921 13.4362 8.22168 13.2187 8.89462C13.0012 9.56759 12.6722 10.1909 12.2318 10.7646L15.6944 14.2045C15.8981 14.4037 16 14.6535 16 14.9538C16 15.2541 15.8981 15.5036 15.6944 15.7021C15.4907 15.9007 15.2425 16 14.9498 16C14.6571 16 14.4098 15.8979 14.2078 15.6938L10.7864 12.2622C10.2799 12.6759 9.67579 12.9972 8.97421 13.2261C8.27264 13.455 7.55216 13.5695 6.81275 13.5695ZM6.78074 11.4844C8.09394 11.4844 9.20273 11.0291 10.1071 10.1185C11.0115 9.2079 11.4637 8.09664 11.4637 6.78473C11.4637 5.47283 11.012 4.36157 10.1086 3.45096C9.20517 2.54036 8.09638 2.08507 6.7822 2.08507C5.45884 2.08507 4.34452 2.54036 3.43923 3.45096C2.53393 4.36157 2.08128 5.47283 2.08128 6.78473C2.08128 8.09664 2.53393 9.2079 3.43923 10.1185C4.34452 11.0291 5.45835 11.4844 6.78074 11.4844Z" fill="#8E8E93"/>
</svg>
