<svg width="17" height="17" viewBox="0 0 17 17" fill="none" xmlns="http://www.w3.org/2000/svg">
<path d="M8.5 14.1862L4.26534 16.8581C4.10034 16.9642 3.92874 17.0108 3.75054 16.9979C3.57234 16.985 3.41496 16.9255 3.27838 16.8193C3.1418 16.7132 3.03868 16.5775 2.96904 16.4121C2.89937 16.2468 2.88535 16.0614 2.92697 15.8559L4.04684 10.8093L0.30652 7.4048C0.153007 7.26452 0.0584234 7.10559 0.0227681 6.928C-0.0128872 6.75042 -0.00666481 6.57726 0.0414353 6.40852C0.0870402 6.23981 0.177081 6.09833 0.311557 5.98409C0.446033 5.86987 0.614086 5.80182 0.815714 5.77993L5.75655 5.32836L7.6708 0.563272C7.74757 0.372896 7.86434 0.231419 8.0211 0.138842C8.17786 0.046281 8.33749 0 8.5 0C8.6625 0 8.82214 0.046281 8.9789 0.138842C9.13566 0.231419 9.25242 0.372896 9.3292 0.563272L11.2434 5.32836L16.1881 5.77993C16.3872 5.80182 16.554 5.86987 16.6884 5.98409C16.8229 6.09833 16.913 6.23981 16.9586 6.40852C17.0067 6.57726 17.0129 6.75042 16.9772 6.928C16.9416 7.10559 16.847 7.26452 16.6935 7.4048L12.9532 10.8093L14.073 15.8559C14.1146 16.0614 14.1006 16.2468 14.031 16.4121C13.9613 16.5775 13.8582 16.7132 13.7216 16.8193C13.585 16.9255 13.4277 16.985 13.2495 16.9979C13.0713 17.0108 12.8997 16.9642 12.7347 16.8581L8.5 14.1862Z" fill="#5CD034"/>
</svg>
